<svg xmlns="http://www.w3.org/2000/svg" viewBox="290 290 500 500" role="img" aria-label="Innsyste">
  <defs>
    <style>
      .fi-1 { fill: #ff4575; }
      .fi-2 { fill: #112e50; }
    </style>
  </defs>
  <rect class="fi-1" x="316.71" y="337.1" width="100.89" height="102.68" transform="translate(755.59 21.28) rotate(90)"/>
  <rect class="fi-2" x="317.66" y="539.72" width="303.36" height="101.69" transform="translate(1059.9 121.22) rotate(90)"/>
  <path class="fi-2" d="M548.49,337.99h-28.28v100.89h40.88c26.9,0,52.88,10.39,71.98,29.34.15.15.3.3.45.44,19.74,19.74,29.61,43.56,29.61,71.45v202.12h101.06v-202.12c0-26.85-5.13-52.63-15.4-77.38-10.26-24.74-24.87-46.58-43.82-65.53-18.95-18.95-40.8-33.56-65.53-43.82-15.87-6.58-29.22-9.77-36.59-11.28-2.29-.47-10.12-2.04-20.72-3.14-13.55-1.41-25.08-1.37-33.64-.98Z"/>
</svg>
