<?xml version="1.0" encoding="UTF-8"?>
<svg xmlns="http://www.w3.org/2000/svg" viewBox="72 452 930 148" role="img" aria-label="Innsyste">
  <defs>
    <style>
      .cls-1 { fill: #ff4575; }
      .cls-2 { fill: #112e50; }
    </style>
  </defs>
  <rect class="cls-2" x="258.96" y="463.54" width="3.29" height="125.45"/>
  <rect class="cls-1" x="90.13" y="468.98" width="28.49" height="28.99" transform="translate(587.84 379.1) rotate(90)"/>
  <rect class="cls-2" x="90.39" y="526.19" width="85.66" height="28.71" transform="translate(673.77 407.32) rotate(90)"/>
  <path class="cls-2" d="M155.57,469.23h-7.98v28.49h11.54c7.6,0,14.93,2.93,20.32,8.28.04.04.08.08.13.13,5.57,5.57,8.36,12.3,8.36,20.18v57.07h28.54v-57.07c0-7.58-1.45-14.86-4.35-21.85-2.9-6.98-7.02-13.15-12.37-18.5-5.35-5.35-11.52-9.47-18.5-12.37-4.48-1.86-8.25-2.76-10.33-3.19-.65-.13-2.86-.58-5.85-.89-3.83-.4-7.08-.39-9.5-.28Z"/>
  <g>
    <path class="cls-2" d="M304.9,475.2c0-.88.27-1.65.81-2.28.54-.64,1.35-.96,2.43-.96h21.66c.74,0,1.52.29,2.36.88.83.59,1.25,1.38,1.25,2.36v102.93c0,2.16-1.2,3.24-3.61,3.24h-21.66c-2.16,0-3.24-1.08-3.24-3.24v-102.93Z"/>
    <path class="cls-2" d="M356.03,489.12c.64-.54,1.31-.88,2.03-1.03.71-.15,1.39-.22,2.03-.22h11.13c.88,0,1.65.16,2.28.48.64.32,1.18.75,1.62,1.29.44.54.8,1.15,1.07,1.84.27.69.53,1.39.77,2.13l1.55,6.47c.74-1.52,1.93-3.09,3.57-4.7,1.64-1.62,3.68-3.09,6.12-4.41,2.43-1.32,5.24-2.41,8.44-3.27,3.19-.86,6.75-1.29,10.68-1.29,5.6,0,10.6,1.08,14.99,3.23,4.4,2.15,8.13,5.09,11.2,8.82,3.07,3.72,5.4,8.07,7,13.05,1.6,4.98,2.39,10.29,2.39,15.94v48.26c0,1.87-.41,3.28-1.22,4.24-.81.96-2.1,1.44-3.87,1.44h-17.02c-2.11,0-3.56-.36-4.35-1.07-.79-.71-1.18-2.1-1.18-4.16v-47.97c0-2.11-.48-4.11-1.44-6-.96-1.89-2.22-3.56-3.79-5.01-1.57-1.45-3.35-2.59-5.34-3.43-1.99-.83-4.02-1.25-6.08-1.25-1.77,0-3.57.39-5.42,1.18-1.84.79-3.54,1.88-5.08,3.28-1.55,1.4-2.85,3.05-3.91,4.94-1.06,1.89-1.66,3.94-1.8,6.15v47.89c0,.84-.16,1.67-.48,2.5-.32.84-.8,1.47-1.44,1.92-.64.39-1.24.66-1.81.81-.56.15-1.22.22-1.95.22h-16.65c-2.11,0-3.64-.52-4.57-1.55-.93-1.03-1.4-2.41-1.4-4.13v-82.4c0-.93.21-1.79.63-2.57.42-.78.99-1.4,1.73-1.84l-.44.22Z"/>
    <path class="cls-2" d="M462.5,489.12c.64-.54,1.31-.88,2.03-1.03.71-.15,1.39-.22,2.03-.22h11.13c.88,0,1.65.16,2.28.48.64.32,1.18.75,1.62,1.29.44.54.8,1.15,1.07,1.84.27.69.53,1.39.77,2.13l1.55,6.47c.74-1.52,1.93-3.09,3.57-4.7,1.64-1.62,3.68-3.09,6.12-4.41,2.43-1.32,5.24-2.41,8.44-3.27,3.19-.86,6.75-1.29,10.68-1.29,5.6,0,10.6,1.08,14.99,3.23,4.4,2.15,8.13,5.09,11.2,8.82,3.07,3.72,5.4,8.07,7,13.05,1.6,4.98,2.39,10.29,2.39,15.94v48.26c0,1.87-.41,3.28-1.22,4.24-.81.96-2.1,1.44-3.87,1.44h-17.02c-2.11,0-3.56-.36-4.35-1.07-.79-.71-1.18-2.1-1.18-4.16v-47.97c0-2.11-.48-4.11-1.44-6-.96-1.89-2.22-3.56-3.79-5.01-1.57-1.45-3.35-2.59-5.34-3.43-1.99-.83-4.02-1.25-6.08-1.25-1.77,0-3.57.39-5.42,1.18-1.84.79-3.54,1.88-5.08,3.28-1.55,1.4-2.85,3.05-3.91,4.94-1.06,1.89-1.66,3.94-1.8,6.15v47.89c0,.84-.16,1.67-.48,2.5-.32.84-.8,1.47-1.44,1.92-.64.39-1.24.66-1.81.81-.56.15-1.22.22-1.95.22h-16.65c-2.11,0-3.64-.52-4.57-1.55-.93-1.03-1.4-2.41-1.4-4.13v-82.4c0-.93.21-1.79.63-2.57.42-.78.99-1.4,1.73-1.84l-.44.22Z"/>
    <path class="cls-2" d="M581.05,552.27c1.33,1.33,2.76,2.44,4.31,3.35,1.55.91,3.03,1.65,4.46,2.21,1.42.56,2.68.97,3.76,1.22,1.08.25,1.82.37,2.21.37.93,0,2.12-.04,3.57-.11,1.45-.07,2.84-.29,4.16-.66,1.33-.37,2.47-.97,3.43-1.81.96-.84,1.44-2.01,1.44-3.54,0-1.38-.27-2.47-.81-3.28-.54-.81-1.33-1.5-2.36-2.06-1.03-.56-2.3-1.07-3.79-1.51-1.5-.44-3.18-.96-5.05-1.55-5.89-1.57-10.76-3.46-14.59-5.67-3.83-2.21-6.87-4.68-9.1-7.4-2.24-2.73-3.79-5.66-4.68-8.8-.88-3.14-1.33-6.46-1.33-9.95,0-4.08.81-7.78,2.43-11.13,1.62-3.34,3.93-6.2,6.93-8.58,3-2.38,6.58-4.22,10.76-5.53,4.17-1.3,8.82-1.95,13.93-1.95,3.09,0,5.99.26,8.69.77,2.7.52,5.28,1.33,7.74,2.43,2.46,1.11,4.85,2.53,7.18,4.27,2.33,1.74,4.65,3.82,6.96,6.23.83.98,1.26,1.9,1.29,2.76.02.86-.53,1.78-1.66,2.76-1.92,1.57-3.75,3.12-5.49,4.64-1.74,1.52-3.55,3.22-5.42,5.08-.59.49-1.18.8-1.77.92-.59.12-1.15.11-1.69-.04-.54-.15-1.06-.39-1.55-.74-.49-.34-.93-.76-1.33-1.25-1.72-1.92-3.68-3.21-5.89-3.87-2.21-.66-4.27-.99-6.19-.99-2.41,0-4.32.42-5.75,1.25-1.43.84-2.09,2.11-1.99,3.83.1,1.28.58,2.27,1.44,2.98.86.71,1.92,1.29,3.17,1.73,1.25.44,2.58.8,3.98,1.07,1.4.27,2.69.58,3.87.92,4.42,1.43,8.47,2.97,12.16,4.64,3.68,1.67,6.88,3.72,9.58,6.15,2.7,2.43,4.8,5.34,6.3,8.73,1.5,3.39,2.25,7.52,2.25,12.38s-.97,9.21-2.91,13.04c-1.94,3.83-4.61,7.05-7.99,9.65-3.39,2.6-7.4,4.59-12.05,5.97-4.64,1.37-9.64,2.06-14.99,2.06-3.05,0-6.14-.27-9.28-.81-3.14-.54-6.19-1.41-9.14-2.62-2.95-1.2-5.75-2.75-8.4-4.64-2.65-1.89-5.01-4.19-7.07-6.89-.54-.69-.95-1.41-1.22-2.17-.27-.76-.39-1.51-.37-2.25.02-.74.17-1.41.44-2.03.27-.61.7-1.14,1.29-1.58l9.51-9.51c1.18-.98,2.22-1.33,3.13-1.03.91.3,2.07,1.13,3.5,2.51Z"/>
    <path class="cls-2" d="M645.15,494.87c-.79-1.96-.8-3.65-.04-5.05.76-1.4,2.44-2.1,5.05-2.1h18.2c1.23,0,2.23.38,3.02,1.14.79.76,1.37,1.71,1.77,2.84l20.85,59.31,20.41-59.31c.54-1.57,1.23-2.63,2.06-3.17.83-.54,1.99-.81,3.46-.81h18.94c1.37,0,2.46.18,3.24.55.79.37,1.34.86,1.66,1.47.32.61.43,1.3.33,2.06-.1.76-.29,1.51-.59,2.25-1.87,4.62-3.91,9.66-6.12,15.14-2.21,5.48-4.51,11.18-6.89,17.09-2.38,5.92-4.8,11.94-7.26,18.05-2.46,6.12-4.85,12.12-7.18,18.01-2.33,5.9-4.58,11.56-6.74,16.98-2.16,5.43-4.14,10.41-5.93,14.96-1.79,4.54-3.35,8.53-4.68,11.97-1.33,3.44-2.33,6.09-3.02,7.96l.22-.37c-.34,1.33-.96,2.39-1.84,3.21-.88.81-1.97,1.22-3.24,1.22h-17.02c-2.21,0-3.72-.43-4.53-1.29-.81-.86-1.22-2.12-1.22-3.79,0-.64.09-1.13.26-1.47.17-.34.31-.56.41-.66l11.57-30.06-35.15-86.13Z"/>
    <path class="cls-2" d="M769.38,552.27c1.33,1.33,2.76,2.44,4.31,3.35,1.55.91,3.03,1.65,4.46,2.21,1.42.56,2.68.97,3.76,1.22,1.08.25,1.82.37,2.21.37.93,0,2.12-.04,3.57-.11,1.45-.07,2.84-.29,4.16-.66,1.33-.37,2.47-.97,3.43-1.81.96-.84,1.44-2.01,1.44-3.54,0-1.38-.27-2.47-.81-3.28-.54-.81-1.33-1.5-2.36-2.06-1.03-.56-2.3-1.07-3.79-1.51-1.5-.44-3.18-.96-5.05-1.55-5.89-1.57-10.76-3.46-14.59-5.67-3.83-2.21-6.87-4.68-9.1-7.4-2.24-2.73-3.79-5.66-4.68-8.8-.88-3.14-1.33-6.46-1.33-9.95,0-4.08.81-7.78,2.43-11.13,1.62-3.34,3.93-6.2,6.93-8.58,3-2.38,6.58-4.22,10.76-5.53,4.17-1.3,8.82-1.95,13.93-1.95,3.09,0,5.99.26,8.69.77,2.7.52,5.28,1.33,7.74,2.43,2.46,1.11,4.85,2.53,7.18,4.27,2.33,1.74,4.65,3.82,6.96,6.23.83.98,1.26,1.9,1.29,2.76.02.86-.53,1.78-1.66,2.76-1.92,1.57-3.75,3.12-5.49,4.64-1.74,1.52-3.55,3.22-5.42,5.08-.59.49-1.18.8-1.77.92-.59.12-1.15.11-1.69-.04-.54-.15-1.06-.39-1.55-.74-.49-.34-.93-.76-1.33-1.25-1.72-1.92-3.68-3.21-5.89-3.87-2.21-.66-4.27-.99-6.19-.99-2.41,0-4.32.42-5.75,1.25-1.43.84-2.09,2.11-1.99,3.83.1,1.28.58,2.27,1.44,2.98.86.71,1.92,1.29,3.17,1.73,1.25.44,2.58.8,3.98,1.07,1.4.27,2.69.58,3.87.92,4.42,1.43,8.47,2.97,12.16,4.64,3.68,1.67,6.88,3.72,9.58,6.15,2.7,2.43,4.8,5.34,6.3,8.73,1.5,3.39,2.25,7.52,2.25,12.38s-.97,9.21-2.91,13.04c-1.94,3.83-4.61,7.05-7.99,9.65-3.39,2.6-7.4,4.59-12.05,5.97-4.64,1.37-9.64,2.06-14.99,2.06-3.05,0-6.14-.27-9.28-.81-3.14-.54-6.19-1.41-9.14-2.62-2.95-1.2-5.75-2.75-8.4-4.64-2.65-1.89-5.01-4.19-7.07-6.89-.54-.69-.95-1.41-1.22-2.17-.27-.76-.39-1.51-.37-2.25.02-.74.17-1.41.44-2.03.27-.61.7-1.14,1.29-1.58l9.51-9.51c1.18-.98,2.22-1.33,3.13-1.03.91.3,2.07,1.13,3.5,2.51Z"/>
    <path class="cls-2" d="M846.38,473.21c0-1.52.5-2.66,1.51-3.43,1.01-.76,2.44-1.49,4.31-2.17l16.73-5.82c.24-.05.48-.07.7-.07h.63c1.82,0,3.03.53,3.65,1.58.61,1.06.92,2.44.92,4.16l-.07,20.26h10.09c1.57,0,2.85.47,3.83,1.4.98.93,1.47,2.33,1.47,4.2v14.22c0,2.06-.49,3.57-1.47,4.53-.98.96-2.26,1.44-3.83,1.44h-10.09l.07,62.19c0,1.87-.54,3.28-1.62,4.24-1.08.96-2.58,1.44-4.49,1.44h-16.65c-3.78,0-5.67-1.89-5.67-5.67l-.07-62.19h-7.59c-3.78,0-5.67-1.99-5.67-5.97v-14.22c0-3.73,1.89-5.6,5.67-5.6h7.59l.07-14.52Z"/>
    <path class="cls-2" d="M979.59,570.17c-4.32,3.98-9.19,7.09-14.59,9.32-5.4,2.23-11.13,3.35-17.17,3.35-6.73,0-13.09-1.23-19.08-3.68-5.99-2.46-11.25-5.86-15.77-10.21-4.52-4.35-8.11-9.47-10.76-15.36-2.65-5.89-3.98-12.31-3.98-19.23,0-4.32.53-8.51,1.58-12.56,1.06-4.05,2.55-7.85,4.49-11.38,1.94-3.54,4.3-6.79,7.07-9.76,2.77-2.97,5.88-5.51,9.32-7.63,3.44-2.11,7.17-3.76,11.2-4.94,4.03-1.18,8.28-1.77,12.75-1.77,4.08,0,8.03.54,11.86,1.62,3.83,1.08,7.43,2.6,10.79,4.57,3.36,1.97,6.45,4.32,9.25,7.07,2.8,2.75,5.21,5.76,7.22,9.03,2.01,3.27,3.57,6.75,4.68,10.46,1.11,3.71,1.66,7.53,1.66,11.46,0,2.56-.04,4.64-.11,6.26-.07,1.62-.45,2.91-1.14,3.87-.69.96-1.83,1.62-3.43,1.99-1.6.37-3.94.55-7.04.55h-53.05c.49,3.14,1.49,5.77,2.98,7.88,1.5,2.11,3.23,3.79,5.19,5.05,1.96,1.25,4.05,2.15,6.26,2.69,2.21.54,4.3.81,6.26.81,1.77,0,3.58-.18,5.45-.55,1.87-.37,3.67-.86,5.42-1.47,1.74-.61,3.34-1.33,4.79-2.14,1.45-.81,2.62-1.66,3.5-2.54.79-.64,1.46-1.12,2.03-1.44.56-.32,1.17-.48,1.81-.48s1.29.22,1.95.66c.66.44,1.41,1.08,2.25,1.92l7.81,8.84c.54.64.88,1.22,1.03,1.73.15.52.22,1.04.22,1.59,0,.98-.27,1.83-.81,2.54-.54.71-1.18,1.34-1.92,1.88ZM944.15,508.8c-1.92,0-3.77.38-5.56,1.14-1.79.76-3.48,1.78-5.05,3.06-1.57,1.28-2.98,2.73-4.24,4.35-1.25,1.62-2.27,3.27-3.06,4.94h37.65c-1.03-1.92-2.15-3.68-3.35-5.31-1.2-1.62-2.58-3.04-4.13-4.27-1.55-1.23-3.32-2.19-5.3-2.87-1.99-.69-4.31-1.03-6.96-1.03Z"/>
  </g>
</svg>
